<svg xmlns="http://www.w3.org/2000/svg" xmlns:svg="http://www.w3.org/2000/svg" id="svg7384" width="16.008" height="16" version="1.1"><metadata id="metadata90"/><title id="title9167">Gnome Symbolic Icon Theme</title><g style="display:inline" id="layer12" transform="translate(-200.99193,-787)"><path style="color:#bebebe;fill:#bebebe;fill-opacity:1;fill-rule:nonzero;stroke:none;stroke-width:.70439327;marker:none;visibility:visible;display:inline;overflow:visible;enable-background:accumulate" id="path40342-3-3-9" d="m 213.0002,795 c 0,2.20913 -1.79087,4 -4,4 -1.48448,0 -2.7785,-0.79916 -3.46875,-2 l -3.46875,2 c 1.42906,2.4752 4.07938,4 6.9375,4 4.41827,0 8,-3.58173 8,-8 l -4,0 z"/><path style="opacity:.35;color:#bebebe;fill:#bebebe;fill-opacity:1;fill-rule:nonzero;stroke:none;stroke-width:.70439327;marker:none;visibility:visible;display:inline;overflow:visible;enable-background:accumulate" id="path40342-3-3-9-3" d="m 209.0002,787 c -1.40429,0 -2.78385,0.36036 -4,1.0625 -3.82633,2.20913 -5.14663,7.11117 -2.9375,10.9375 l 3.46875,-2 c -0.33695,-0.58619 -0.53125,-1.27535 -0.53125,-2 0,-2.20913 1.79087,-4 4,-4 l 0,-4 z"/><path style="color:#bebebe;fill:#bebebe;fill-opacity:1;stroke:none;stroke-width:1.87825239;marker:none;visibility:visible;display:inline;overflow:visible;enable-background:accumulate" id="path40342-3" d="m -28.129591,239.58937 a 2.8173785,2.8173785 0 1 1 -5.634758,0 2.8173785,2.8173785 0 1 1 5.634758,0 z" transform="matrix(1.0648905,0,0,1.0648906,241.95513,539.86355)"/></g></svg>